<?xml version="1.0" encoding="UTF-8" standalone="no"?>
<svg
   xmlns:dc="http://purl.org/dc/elements/1.1/"
   xmlns:cc="http://creativecommons.org/ns#"
   xmlns:rdf="http://www.w3.org/1999/02/22-rdf-syntax-ns#"
   xmlns:svg="http://www.w3.org/2000/svg"
   xmlns="http://www.w3.org/2000/svg"
   xmlns:sodipodi="http://sodipodi.sourceforge.net/DTD/sodipodi-0.dtd"
   xmlns:inkscape="http://www.inkscape.org/namespaces/inkscape"
   id="svg2"
   viewBox="0 0 268.79489 506.67468"
   version="1.1"
   inkscape:version="0.91 r13725"
   sodipodi:docname="eco_green_hand_icon.svg.2016_09_19_22_29_15.0.svg"
   width="537.58978"
   height="333.45151"
   inkscape:export-filename="/home/pnh/Documents/Test/TypingTutor/img/hands.png"
   inkscape:export-xdpi="117.18973"
   inkscape:export-ydpi="117.18973">
  <defs
     id="defs12" />
  <sodipodi:namedview
     pagecolor="#000000"
     bordercolor="#666666"
     borderopacity="1"
     objecttolerance="10"
     gridtolerance="10"
     guidetolerance="10"
     inkscape:pageopacity="0"
     inkscape:pageshadow="2"
     inkscape:window-width="1920"
     inkscape:window-height="1001"
     id="namedview10"
     showgrid="false"
     fit-margin-top="0"
     fit-margin-left="0"
     fit-margin-right="0"
     fit-margin-bottom="0"
     inkscape:zoom="0.52749845"
     inkscape:cx="358.29489"
     inkscape:cy="200.72575"
     inkscape:window-x="0"
     inkscape:window-y="0"
     inkscape:window-maximized="1"
     inkscape:current-layer="svg2" />
  <path
     style="fill:#ffffff"
     inkscape:connector-curvature="0"
     d="m 347.8079,5.9284769 c -7.47076,-0.06253 -14.98839,7.9760221 -17.3611,30.4380241 l -3.54734,48.875041 -2.56669,43.280768 0.31724,52.00004 c -2.11984,11.259 -7.82163,10.924 -14.18918,8.375 -26.88422,-36.268 -30.0506,-92.351794 -48.30688,-134.719848 -16.74369,-27.991002 -29.64638,-17.064001 -34.14631,6.968808 2.85851,19.957026 6.26271,32.721042 9.97811,41.53077 l 6.78312,27.59004 c 3.32861,17.10602 6.64994,35.40203 9.9781,45.37503 l 6.7774,30 8.99801,48.875 c 1.45814,12.161 2.27996,24.085 -3.86453,33.5 0,0 -37.97162,-3.4859 -37.69384,-9.0625 -13.27922,-18.581 -28.71981,-31.514 -42.76963,-41.656 -22.36768,-16.147 -44.14196,-10.358 -45.9997,0.65625 -0.86838,5.1493 4.62276,9.3001 10.49768,15.531 6.38518,2.9357 10.37125,12.264 16.00632,19.281 6.1671,7.6801 10.26512,17.456 18.11139,23.938 9.45299,7.8085 14.0775,20.987 20.96675,30.406 10.85299,28.443 23.24718,52.447 40.26035,65.969 31.733,29.203 40.20313,58.28 51.88301,88.656 2.0713,6.9 4.21956,13.051 5.6526,19.031 l 123.81268,-0.01 c -4.01755,-26.298 -7.48127,-56.359 -8.99802,-100 1.12388,-6.0191 1.14289,-11.428 5.47956,-19.188 9.8286,-22.858 14.75121,-48.39 18.02464,-81 2.13488,-21.268 8.32017,-29.613 11.59314,-37.688 0.39208,1.0217 21.37005,-26.071 39.16489,-53.5 11.00803,-16.967 22.82266,-32.958 24.31218,-34.469 5.52404,-5.6043 12.19669,-24.73301 10.95912,-24.06201 7.41076,-16.64002 -0.29652,-18.79702 -15.14066,-15.03102 -9.39208,6.25841 -16.71416,15.88803 -24.48475,24.78103 -19.01581,20.747 -35.85917,41.89 -59.61208,61.781 -12.58522,2.9548 -15.12036,-0.77158 -15.45813,-15.344 l 8.07514,-33.5 5.45068,-25.12501 c 2.16091,-35.02105 9.24442,-55.886788 13.87171,-83.780826 1.67077,-36.113013 -25.5839,-31.926013 -31.26234,-13.969016 l -10.29557,48.875062 -5.16237,24.06175 -16.09306,54.46904 c -6.11053,6.6662 -13.67698,19.175 -13.20817,0 l 2.55636,-29.66001 c -1.28122,-13.73302 -2.24027,-29.40604 -1.93231,-44.00006 -2.17373,-27.064748 -1.68184,-50.651778 0,-71.561779 C 366.92074,19.44905 357.41145,5.9890269 347.80619,5.9080269 Z"
     id="path2914" />
  <metadata
     id="metadata8">
    <rdf:RDF>
      <cc:Work>
        <dc:format>image/svg+xml</dc:format>
        <dc:type
           rdf:resource="http://purl.org/dc/dcmitype/StillImage" />
        <cc:license
           rdf:resource="http://creativecommons.org/publicdomain/zero/1.0/" />
        <dc:publisher>
          <cc:Agent
             rdf:about="http://openclipart.org/">
            <dc:title>Openclipart</dc:title>
          </cc:Agent>
        </dc:publisher>
        <dc:title>eco green hand icon</dc:title>
        <dc:date>2012-05-31T17:18:49</dc:date>
        <dc:description>clip art, clipart, green, hand; ecology, icon, </dc:description>
        <dc:source>http://openclipart.org/detail/170328/eco-green-hand-icon-by-cybergedeon-170328</dc:source>
        <dc:creator>
          <cc:Agent>
            <dc:title>dominiquechappard</dc:title>
          </cc:Agent>
        </dc:creator>
        <dc:subject>
          <rdf:Bag>
            <rdf:li>clip art</rdf:li>
            <rdf:li>clipart</rdf:li>
            <rdf:li>green</rdf:li>
            <rdf:li>hand; ecology</rdf:li>
            <rdf:li>icon</rdf:li>
          </rdf:Bag>
        </dc:subject>
      </cc:Work>
      <cc:License
         rdf:about="http://creativecommons.org/publicdomain/zero/1.0/">
        <cc:permits
           rdf:resource="http://creativecommons.org/ns#Reproduction" />
        <cc:permits
           rdf:resource="http://creativecommons.org/ns#Distribution" />
        <cc:permits
           rdf:resource="http://creativecommons.org/ns#DerivativeWorks" />
      </cc:License>
    </rdf:RDF>
  </metadata>
  <path
     id="path4148"
     d="m -79.013021,5.9284769 c 7.470751,-0.06253 14.988385,7.9760221 17.361092,30.4380241 l 3.54734,48.875041 2.566695,43.280768 -0.317237,52.00004 c 2.11984,11.259 7.821627,10.924 14.189176,8.375 26.884221,-36.268 30.0506,-92.351794 48.306879,-134.719848 16.743689,-27.991002 29.64638,-17.064001 34.14631,6.968808 -2.858507,19.957026 -6.26271,32.721042 -9.978105,41.53077 l -6.783119,27.59004 c -3.328619,17.10602 -6.649948,35.40203 -9.978106,45.37503 l -6.777396,30 -8.998015,48.875 c -1.458139,12.161 -2.279958,24.085 3.864532,33.5 0,0 37.971621,-3.4859 37.693836,-9.0625 13.279223,-18.581 28.719816,-31.514 42.76963,-41.656 22.367679,-16.147 44.141959,-10.358 45.999699,0.65625 0.86838,5.1493 -4.62276,9.3001 -10.49768,15.531 -6.38518,2.9357 -10.37125,12.264 -16.00632,19.281 -6.167099,7.6801 -10.265119,17.456 -18.111389,23.938 -9.452982,7.8085 -14.0775,20.987 -20.966749,30.406 -10.85299,28.443 -23.247178,52.447 -40.260347,65.969 -31.7329969,29.203 -40.203128,58.28 -51.883012,88.656 -2.071297,6.9 -4.219561,13.051 -5.652599,19.031 l -123.812684,-0.01 c 4.01755,-26.298 7.48127,-56.359 8.99802,-100 -1.12388,-6.0191 -1.14289,-11.428 -5.47956,-19.188 -9.8286,-22.858 -14.75121,-48.39 -18.02464,-81 -2.13488,-21.268 -8.32017,-29.613 -11.59314,-37.688 -0.39208,1.0217 -21.37005,-26.071 -39.16489,-53.5 -11.00803,-16.967 -22.82266,-32.958 -24.31217,-34.469 -5.52405,-5.6043 -12.1967,-24.73301 -10.95912,-24.06201 -7.41077,-16.64002 0.29651,-18.79702 15.14065,-15.03102 9.39209,6.25841 16.71416,15.88803 24.48475,24.78103 19.01581,20.747 35.85917,41.89 59.61208,61.781 12.58522,2.9548 15.12036,-0.77158 15.45813,-15.344 l -8.07514,-33.5 -5.45068,-25.12501 c -2.16091,-35.02105 -9.24442,-55.886788 -13.87171,-83.780826 -1.67077,-36.113013 25.5839,-31.926013 31.26234,-13.969016 l 10.29557,48.875062 5.16237,24.06175 16.09307,54.46904 c 6.11053,6.6662 13.67698,19.175 13.20816,0 l -2.556359,-29.66001 c 1.281225,-13.73302 2.240275,-29.40604 1.932312,-44.00006 2.173736,-27.064748 1.681845,-50.651778 0,-71.561779 -1.695318,-13.397001 7.813968,-26.8570241 17.419233,-26.9380241 z"
     inkscape:connector-curvature="0"
     style="fill:#ffffff" />
</svg>
